<svg width="21" height="20" viewBox="0 0 21 20" fill="none" xmlns="http://www.w3.org/2000/svg">
<g clip-path="url(#clip0_691_381)">
<path d="M20.0218 16.9024C19.851 17.2484 19.6268 17.5682 19.3567 17.8513C18.9162 18.3279 18.3677 18.7032 17.7526 18.9489C17.1479 19.1864 16.4995 19.3066 15.8453 19.3024C14.7451 19.2831 13.6604 19.0521 12.6567 18.6234C11.4655 18.1323 10.3367 17.5144 9.29196 16.7815C8.1555 15.9909 7.08309 15.1202 6.08376 14.1768C5.09467 13.2299 4.18242 12.213 3.35484 11.135C2.59475 10.1481 1.95181 9.08426 1.43774 7.96288C0.991321 7.00397 0.751844 5.96958 0.733506 4.92102C0.7293 4.30668 0.848825 3.69726 1.08562 3.12567C1.3344 2.53472 1.71868 2.004 2.21045 1.57219C2.4708 1.30439 2.78501 1.08902 3.13447 0.938815C3.48393 0.788616 3.86154 0.706648 4.24492 0.697768C4.51883 0.696735 4.78952 0.753944 5.03719 0.86521C5.30138 0.978938 5.52796 1.15904 5.69252 1.38614L7.96173 4.428C8.11867 4.62963 8.24999 4.84821 8.35297 5.07916C8.43792 5.25774 8.48448 5.45067 8.48991 5.64661C8.48714 5.88061 8.41602 6.10928 8.28451 6.30707C8.13366 6.54944 7.94945 6.77156 7.73677 6.96754L6.9934 7.70242C6.94162 7.75074 6.90097 7.80877 6.87403 7.87282C6.84709 7.93688 6.83445 8.00556 6.83691 8.07451C6.83703 8.14673 6.84689 8.21863 6.86625 8.28846C6.89559 8.36288 6.92494 8.4187 6.9445 8.47451C7.20715 8.89805 7.51175 9.29676 7.85414 9.66521C8.29429 10.1489 8.76378 10.642 9.2724 11.135C9.80058 11.628 10.3092 12.0838 10.8276 12.5024C11.216 12.8283 11.6388 13.1151 12.0894 13.3582C12.1383 13.3768 12.1969 13.4047 12.2654 13.4327C12.3438 13.4593 12.4267 13.4719 12.5099 13.4699C12.5847 13.4714 12.6589 13.4582 12.728 13.431C12.797 13.4037 12.8593 13.3631 12.911 13.3117L13.6543 12.614C13.8605 12.408 14.0978 12.2324 14.3586 12.0931C14.566 11.9669 14.8068 11.8992 15.053 11.8978C15.2583 11.9005 15.4611 11.9416 15.6497 12.0187C15.8905 12.1168 16.1199 12.2383 16.3343 12.3815L19.5719 14.5675C19.8068 14.7136 19.9933 14.92 20.1098 15.1629C20.2113 15.3927 20.2645 15.6392 20.2663 15.8885C20.2649 16.2395 20.1814 16.5859 20.0218 16.9024V16.9024Z" stroke="#282828" stroke-width="1.5" stroke-miterlimit="10"/>
</g>
<defs>
<clipPath id="clip0_691_381">
<rect width="21" height="20" fill="white"/>
</clipPath>
</defs>
</svg>
