<svg width="212" height="179" viewBox="0 0 212 179" fill="none" xmlns="http://www.w3.org/2000/svg">
<path d="M48.0531 169.271C68.2911 169.271 84.6972 159.75 84.6972 148.006C84.6972 136.262 68.2911 126.741 48.0531 126.741C27.8151 126.741 11.409 136.262 11.409 148.006C11.409 159.75 27.8151 169.271 48.0531 169.271Z" fill="#DAEBFF"/>
<path d="M33.0656 178.768C39.3546 178.768 44.4529 175.809 44.4529 172.159C44.4529 168.51 39.3546 165.551 33.0656 165.551C26.7765 165.551 21.6782 168.51 21.6782 172.159C21.6782 175.809 26.7765 178.768 33.0656 178.768Z" fill="#DAEBFF"/>
<path d="M114.679 149.664C132.192 149.664 146.388 146.706 146.388 143.056C146.388 139.406 132.192 136.448 114.679 136.448C97.1669 136.448 82.9703 139.406 82.9703 143.056C82.9703 146.706 97.1669 149.664 114.679 149.664Z" fill="#DAEBFF"/>
<path d="M211.652 154.824H4.01384V156.523H211.652V154.824Z" fill="#D3E2F9"/>
<path d="M27.2071 128.494C27.2071 128.494 24.8092 134.939 20.5442 137.333C16.2793 139.728 10.2983 136.711 6.94504 133.154C3.59174 129.597 0.337621 124.537 0.0134395 120.765C-0.310058 116.993 5.31387 118.481 5.31387 118.481C5.31387 118.481 2.82848 113.897 1.79438 110.623C0.760286 107.349 1.97152 103.933 5.36996 105.967C8.76839 108.001 8.76839 108.001 8.76839 108.001C8.76839 108.001 6.16263 100.875 6.20914 96.4257C6.25633 91.9762 8.19868 85.3019 11.8611 90.0152C15.5235 94.7286 15.8983 104.613 15.8983 104.613C15.8983 104.613 16.7129 100.4 17.8728 97.3191C19.0328 94.2379 21.4416 94.6371 22.5523 98.9319C23.663 103.226 24.089 109.373 24.089 109.373C24.089 109.373 25.1505 104.63 26.8843 105.384C28.6173 106.138 29.6288 111.696 29.3375 117.152C29.0468 122.608 27.2071 128.494 27.2071 128.494Z" fill="#00B77B"/>
<path d="M26.4479 116.955C26.4479 116.955 26.3207 93.4825 13.0019 85.1216C13.0019 85.1216 6.90605 104.836 16.1616 121.739C25.4172 138.642 23.5221 134.713 23.5221 134.713L26.4479 116.955Z" fill="#00D967"/>
<path d="M16.2902 96.1021L23.8674 130.961" stroke="white" stroke-width="2" stroke-miterlimit="10" stroke-linecap="round" stroke-linejoin="round"/>
<path d="M128.634 112.415H100.728V133.954H128.634V112.415Z" fill="#1E2889"/>
<path d="M142.17 133.748H87.1909V143.086H142.17V133.748Z" fill="#0542BF"/>
<path d="M173.556 114.23H55.8054C52.3995 114.23 49.6392 110.68 49.6392 106.302V7.92827C49.6392 3.54908 52.4002 0 55.8054 0H173.556C176.962 0 179.722 3.54996 179.722 7.92827V106.301C179.722 110.68 176.962 114.23 173.556 114.23Z" fill="#006DFE"/>
<path d="M169.696 109.752H59.6655C56.5065 109.752 53.9452 106.459 53.9452 102.397V11.8326C53.9452 7.77085 56.5065 4.47766 59.6655 4.47766H169.696C172.855 4.47766 175.416 7.77085 175.416 11.8326V102.397C175.416 106.46 172.855 109.752 169.696 109.752Z" fill="url(#paint0_linear_398_5169)"/>
<path d="M96.8315 15.9287H60.7646C59.9761 15.9287 59.3366 15.1065 59.3366 14.0926C59.3366 13.0787 59.9761 12.2565 60.7646 12.2565H96.8315C97.62 12.2565 98.2595 13.0787 98.2595 14.0926C98.2595 15.1065 97.62 15.9287 96.8315 15.9287Z" fill="white"/>
<path d="M96.8315 23.8983H60.7646C59.9761 23.8983 59.3366 23.0761 59.3366 22.0622C59.3366 21.0483 59.9761 20.2261 60.7646 20.2261H96.8315C97.62 20.2261 98.2595 21.0483 98.2595 22.0622C98.2595 23.0761 97.62 23.8983 96.8315 23.8983Z" fill="white"/>
<path d="M96.8315 31.8679H60.7646C59.9761 31.8679 59.3366 31.0457 59.3366 30.0318C59.3366 29.0179 59.9761 28.1957 60.7646 28.1957H96.8315C97.62 28.1957 98.2595 29.0179 98.2595 30.0318C98.2595 31.0457 97.62 31.8679 96.8315 31.8679Z" fill="white"/>
<path d="M96.8315 39.8375H60.7646C59.9761 39.8375 59.3366 39.0153 59.3366 38.0014C59.3366 36.9875 59.9761 36.1653 60.7646 36.1653H96.8315C97.62 36.1653 98.2595 36.9875 98.2595 38.0014C98.2595 39.0153 97.62 39.8375 96.8315 39.8375Z" fill="white"/>
<path d="M96.8315 47.807H60.7646C59.9761 47.807 59.3366 46.9848 59.3366 45.9709C59.3366 44.9571 59.9761 44.1349 60.7646 44.1349H96.8315C97.62 44.1349 98.2595 44.9571 98.2595 45.9709C98.2595 46.9848 97.62 47.807 96.8315 47.807Z" fill="white"/>
<path d="M96.8315 64.3503H60.7646C59.9761 64.3503 59.3366 63.5281 59.3366 62.5142C59.3366 61.5003 59.9761 60.6782 60.7646 60.6782H96.8315C97.62 60.6782 98.2595 61.5003 98.2595 62.5142C98.2595 63.5281 97.62 64.3503 96.8315 64.3503Z" fill="white"/>
<path d="M96.8315 72.32H60.7646C59.9761 72.32 59.3366 71.4977 59.3366 70.4838C59.3366 69.4699 59.9761 68.6476 60.7646 68.6476H96.8315C97.62 68.6476 98.2595 69.4699 98.2595 70.4838C98.2595 71.4977 97.62 72.32 96.8315 72.32Z" fill="#00D967"/>
<path d="M96.8315 80.2895H60.7646C59.9761 80.2895 59.3366 79.4673 59.3366 78.4533C59.3366 77.4394 59.9761 76.6172 60.7646 76.6172H96.8315C97.62 76.6172 98.2595 77.4394 98.2595 78.4533C98.2595 79.4673 97.62 80.2895 96.8315 80.2895Z" fill="white"/>
<path d="M96.8315 88.2591H60.7646C59.9761 88.2591 59.3366 87.4369 59.3366 86.423C59.3366 85.4091 59.9761 84.5869 60.7646 84.5869H96.8315C97.62 84.5869 98.2595 85.4091 98.2595 86.423C98.2595 87.4369 97.62 88.2591 96.8315 88.2591Z" fill="white"/>
<path d="M96.8315 96.2287H60.7646C59.9761 96.2287 59.3366 95.4065 59.3366 94.3926C59.3366 93.3787 59.9761 92.5565 60.7646 92.5565H96.8315C97.62 92.5565 98.2595 93.3787 98.2595 94.3926C98.2595 95.4065 97.62 96.2287 96.8315 96.2287Z" fill="white"/>
<path d="M166.011 64.3503H106.066C105.277 64.3503 104.638 63.5281 104.638 62.5142C104.638 61.5003 105.277 60.6782 106.066 60.6782H166.011C166.799 60.6782 167.439 61.5003 167.439 62.5142C167.438 63.5281 166.799 64.3503 166.011 64.3503Z" fill="white"/>
<path d="M166.011 72.32H106.066C105.277 72.32 104.638 71.4977 104.638 70.4838C104.638 69.4699 105.277 68.6476 106.066 68.6476H166.011C166.799 68.6476 167.439 69.4699 167.439 70.4838C167.438 71.4977 166.799 72.32 166.011 72.32Z" fill="white"/>
<path d="M166.011 80.2895H106.066C105.277 80.2895 104.638 79.4673 104.638 78.4533C104.638 77.4394 105.277 76.6172 106.066 76.6172H166.011C166.799 76.6172 167.439 77.4394 167.439 78.4533C167.438 79.4673 166.799 80.2895 166.011 80.2895Z" fill="white"/>
<path d="M166.011 88.2591H106.066C105.277 88.2591 104.638 87.4369 104.638 86.423C104.638 85.4091 105.277 84.5869 106.066 84.5869H166.011C166.799 84.5869 167.439 85.4091 167.439 86.423C167.438 87.4369 166.799 88.2591 166.011 88.2591Z" fill="white"/>
<path d="M166.011 96.2287H106.066C105.277 96.2287 104.638 95.4065 104.638 94.3926C104.638 93.3787 105.277 92.5565 106.066 92.5565H166.011C166.799 92.5565 167.439 93.3787 167.439 94.3926C167.438 95.4065 166.799 96.2287 166.011 96.2287Z" fill="white"/>
<path d="M168.762 48.244H105.198C104.5 48.244 103.935 47.5177 103.935 46.6207V13.5807C103.935 12.6847 104.5 11.9583 105.198 11.9583H168.762C169.46 11.9583 170.024 12.6847 170.024 13.5807V46.6207C170.024 47.5177 169.459 48.244 168.762 48.244Z" fill="white"/>
<path d="M168.251 31.3859V45.1768C168.251 45.7905 167.863 46.2891 167.383 46.2891H106.334C105.853 46.2891 105.465 45.7897 105.465 45.1768V14.8831C111.103 14.8831 113.91 17.5932 115.557 21.1537C115.664 21.3815 115.765 21.6136 115.857 21.851C118.642 28.6265 117.803 37.9124 123.927 37.9124C124.154 37.9124 124.368 37.8781 124.573 37.8087C124.704 37.7744 124.831 37.7198 124.95 37.6513C129.068 35.4203 128.427 19.592 135.754 19.7054C137.319 19.7309 138.488 20.5021 139.411 21.7332C139.5 21.8572 139.589 21.9803 139.673 22.114C142.953 27.0638 142.999 38.0962 148.037 40.0985C149.853 40.8204 151.457 39.8417 153.041 38.2246C153.141 38.1199 153.245 38.0162 153.345 37.9028C156.695 34.3273 160.026 28.2158 165.195 29.7133C165.345 29.7582 165.495 29.8074 165.649 29.8628C166.467 30.1688 167.333 30.663 168.251 31.3859Z" fill="#DAEBFF"/>
<path d="M168.255 28.601C167.159 28.6213 166.32 29.0961 165.647 29.8629C164.401 31.2813 163.732 33.7048 163.078 36.0738C162.098 39.6194 161.086 43.2784 158.128 43.2784C157.971 43.2784 157.806 43.2678 157.637 43.2485C155.709 43.0058 154.291 40.9894 153.041 38.2247C152.264 36.5135 151.552 34.5103 150.829 32.4588C148.783 26.6875 146.664 20.7193 142.763 20.5804C142.717 20.5804 142.675 20.5751 142.633 20.5751C141.452 20.5751 140.486 21.1538 139.671 22.1131C138.022 24.0468 136.971 27.5326 135.945 30.9445C134.425 35.9938 132.856 41.2154 129.314 41.3192C126.768 41.3886 125.61 40.1514 124.572 37.8079C124.172 36.8978 123.788 35.8197 123.349 34.5886C122.548 32.3339 121.549 29.5296 119.895 26.2663C118.783 24.0811 117.372 22.6909 115.856 21.8502C111.772 19.5612 106.965 21.2373 105.465 21.8652V21.3454C107.072 20.693 111.565 19.2139 115.557 21.152C117.299 21.9979 118.945 23.4955 120.214 25.9981C121.888 29.2869 122.891 32.1105 123.699 34.3802C124.152 35.6561 124.541 36.7491 124.948 37.6487C125.926 39.819 126.999 40.8918 129.306 40.8232C132.591 40.7247 134.044 35.8883 135.587 30.7651C136.633 27.289 137.698 23.7373 139.41 21.7297C140.318 20.6666 141.406 20.0335 142.771 20.0827C146.917 20.226 149.083 26.3384 151.179 32.253C151.894 34.2606 152.587 36.2233 153.344 37.9002C154.544 40.5805 155.89 42.5239 157.674 42.7508C160.72 43.1368 161.69 39.6255 162.717 35.9015C163.355 33.5826 164.009 31.2189 165.193 29.7099C165.947 28.7408 166.92 28.1279 168.248 28.1024L168.255 28.601Z" fill="#00B77B"/>
<path d="M60.9534 48.208H18.9828C17.6184 48.208 16.5125 46.7861 16.5125 45.0318V12.7963C16.5125 11.042 17.6184 9.62006 18.9828 9.62006H60.9534C62.3178 9.62006 63.4237 11.042 63.4237 12.7963V45.0318C63.4237 46.7861 62.3178 48.208 60.9534 48.208Z" fill="#B0D8FF"/>
<path d="M63.4237 12.6046C63.4237 10.889 62.3424 9.49872 61.0081 9.49872H19.7871C18.4528 9.49872 17.3715 10.889 17.3715 12.6046V16.1528H63.4237V12.6046Z" fill="#3998FF"/>
<path d="M17.3715 16.1528V43.9844C17.3715 45.7 18.4528 47.0903 19.7871 47.0903H61.0081C62.3424 47.0903 63.4237 45.7 63.4237 43.9844V16.1528H17.3715Z" fill="url(#paint1_linear_398_5169)"/>
<path d="M52.6817 14.0652C53.1601 13.8104 53.3873 13.1052 53.1891 12.49C52.991 11.8749 52.4425 11.5828 51.964 11.8376C51.4856 12.0924 51.2584 12.7976 51.4566 13.4128C51.6547 14.0279 52.2033 14.3201 52.6817 14.0652Z" fill="white"/>
<path d="M56.4687 14.0651C56.9471 13.8103 57.1743 13.1051 56.9761 12.4899C56.7779 11.8748 56.2294 11.5826 55.751 11.8375C55.2725 12.0923 55.0453 12.7975 55.2435 13.4127C55.4417 14.0278 55.9902 14.3199 56.4687 14.0651Z" fill="white"/>
<path d="M60.809 13.239C60.928 12.591 60.6159 11.9416 60.1119 11.7886C59.608 11.6356 59.1029 12.0369 58.9839 12.6849C58.8649 13.3329 59.177 13.9823 59.681 14.1353C60.185 14.2883 60.69 13.887 60.809 13.239Z" fill="white"/>
<path d="M57.3251 44.7548H44.3435C42.3287 44.7548 40.6948 42.6549 40.6948 40.0635V25.366C40.6948 22.7754 42.328 20.6746 44.3435 20.6746H57.3251C59.34 20.6746 60.9739 22.7745 60.9739 25.366V40.0635C60.9732 42.6549 59.34 44.7548 57.3251 44.7548Z" fill="white"/>
<path d="M37.0898 30.3695C36.2588 25.6377 32.9719 22.1027 29.0406 22.1027V32.7147L37.0898 30.3695Z" fill="#0ACE68"/>
<path d="M29.0413 32.7147V22.1027C24.4829 22.1027 20.7877 26.8538 20.7877 32.7147C20.7877 38.5756 24.4829 43.3267 29.0413 43.3267C33.5997 43.3267 37.2949 38.5756 37.2949 32.7147C37.2949 31.9083 37.2224 31.1239 37.0898 30.3686L29.0413 32.7147Z" fill="white"/>
<path d="M29.0413 41.0044C32.5254 41.0044 35.3499 37.3729 35.3499 32.8932C35.3499 28.4135 32.5254 24.782 29.0413 24.782C25.5572 24.782 22.7328 28.4135 22.7328 32.8932C22.7328 37.3729 25.5572 41.0044 29.0413 41.0044Z" fill="#DAEBFF"/>
<path d="M20.7008 62.0544H6.64002V70.0478H20.7008V62.0544Z" fill="#DAEBFF"/>
<path d="M26.3864 70.0478H12.3255V78.0411H26.3864V70.0478Z" fill="#EBF5FF"/>
<path d="M203.651 64.5024H146.002C144.128 64.5024 142.609 62.5494 142.609 60.14V15.8627C142.609 13.4533 144.128 11.5002 146.002 11.5002H203.651C205.525 11.5002 207.044 13.4533 207.044 15.8627V60.14C207.044 62.5494 205.524 64.5024 203.651 64.5024Z" fill="#B0D8FF"/>
<path d="M207.044 15.5998C207.044 13.244 205.558 11.334 203.726 11.334H147.108C145.275 11.334 143.79 13.244 143.79 15.5998V20.4732H207.044V15.5998H207.044Z" fill="#3998FF"/>
<path d="M143.789 20.4731V58.7013C143.789 61.0571 145.274 62.9671 147.106 62.9671H203.724C205.557 62.9671 207.042 61.0571 207.042 58.7013V20.4731H143.789Z" fill="url(#paint2_linear_398_5169)"/>
<path d="M168.913 24.7504H157.395C157.161 24.7504 156.971 24.4866 156.971 24.1612C156.971 23.8359 157.16 23.5721 157.395 23.5721H168.913C169.147 23.5721 169.337 23.8359 169.337 24.1612C169.337 24.4866 169.147 24.7504 168.913 24.7504Z" fill="#006DFE"/>
<path d="M167.014 30.0318H155.495C155.261 30.0318 155.071 29.768 155.071 29.4426C155.071 29.1173 155.261 28.8535 155.495 28.8535H167.014C167.248 28.8535 167.438 29.1173 167.438 29.4426C167.438 29.768 167.249 30.0318 167.014 30.0318Z" fill="#00D967"/>
<path d="M191.44 30.0318H171.66C171.426 30.0318 171.236 29.768 171.236 29.4426C171.236 29.1173 171.425 28.8535 171.66 28.8535H191.44C191.674 28.8535 191.864 29.1173 191.864 29.4426C191.864 29.768 191.674 30.0318 191.44 30.0318Z" fill="#006DFE"/>
<path d="M178.873 24.7504H173.052C172.818 24.7504 172.628 24.4866 172.628 24.1612C172.628 23.8359 172.817 23.5721 173.052 23.5721H178.873C179.107 23.5721 179.297 23.8359 179.297 24.1612C179.297 24.4866 179.107 24.7504 178.873 24.7504Z" fill="#006DFE"/>
<path d="M189.091 24.7504H183.27C183.036 24.7504 182.846 24.4866 182.846 24.1612C182.846 23.8359 183.036 23.5721 183.27 23.5721H189.091C189.325 23.5721 189.515 23.8359 189.515 24.1612C189.515 24.4866 189.325 24.7504 189.091 24.7504Z" fill="#006DFE"/>
<path d="M163.202 35.3141H155.635C155.402 35.3141 155.211 35.0503 155.211 34.7249C155.211 34.3996 155.401 34.1358 155.635 34.1358H163.202C163.436 34.1358 163.627 34.3996 163.627 34.7249C163.627 35.0503 163.436 35.3141 163.202 35.3141Z" fill="#006DFE"/>
<path d="M178.895 35.3141H167.377C167.143 35.3141 166.952 35.0503 166.952 34.7249C166.952 34.3996 167.142 34.1358 167.377 34.1358H178.895C179.129 34.1358 179.319 34.3996 179.319 34.7249C179.319 35.0503 179.128 35.3141 178.895 35.3141Z" fill="#00D967"/>
<path d="M187.294 35.3141H182.993C182.759 35.3141 182.569 35.0503 182.569 34.7249C182.569 34.3996 182.758 34.1358 182.993 34.1358H187.294C187.528 34.1358 187.719 34.3996 187.719 34.7249C187.718 35.0503 187.528 35.3141 187.294 35.3141Z" fill="#006DFE"/>
<path d="M170.327 40.5954H163.579C163.345 40.5954 163.155 40.3316 163.155 40.0062C163.155 39.6809 163.344 39.4171 163.579 39.4171H170.327C170.561 39.4171 170.751 39.6809 170.751 40.0062C170.75 40.3316 170.561 40.5954 170.327 40.5954Z" fill="#006DFE"/>
<path d="M186.469 40.5954H174.95C174.716 40.5954 174.526 40.3316 174.526 40.0062C174.526 39.6809 174.716 39.4171 174.95 39.4171H186.469C186.703 39.4171 186.893 39.6809 186.893 40.0062C186.893 40.3316 186.703 40.5954 186.469 40.5954Z" fill="#006DFE"/>
<path d="M182.776 45.8777H161.193C160.959 45.8777 160.769 45.6139 160.769 45.2886C160.769 44.9632 160.958 44.6995 161.193 44.6995H182.776C183.01 44.6995 183.2 44.9632 183.2 45.2886C183.2 45.6139 183.011 45.8777 182.776 45.8777Z" fill="#006DFE"/>
<path d="M198.919 45.8777H185.882C185.648 45.8777 185.457 45.6139 185.457 45.2886C185.457 44.9632 185.647 44.6995 185.882 44.6995H198.919C199.153 44.6995 199.343 44.9632 199.343 45.2886C199.343 45.6139 199.153 45.8777 198.919 45.8777Z" fill="#006DFE"/>
<path d="M167.014 51.1592H155.495C155.261 51.1592 155.071 50.8953 155.071 50.57C155.071 50.2446 155.261 49.9808 155.495 49.9808H167.014C167.248 49.9808 167.438 50.2446 167.438 50.57C167.438 50.8953 167.249 51.1592 167.014 51.1592Z" fill="#006DFE"/>
<path d="M180.953 51.1592H169.434C169.201 51.1592 169.01 50.8953 169.01 50.57C169.01 50.2446 169.2 49.9808 169.434 49.9808H180.953C181.187 49.9808 181.377 50.2446 181.377 50.57C181.377 50.8953 181.187 51.1592 180.953 51.1592Z" fill="#00D967"/>
<path d="M182.062 56.4415H164.567C164.333 56.4415 164.143 56.1777 164.143 55.8523C164.143 55.527 164.332 55.2632 164.567 55.2632H182.062C182.296 55.2632 182.486 55.527 182.486 55.8523C182.486 56.1777 182.296 56.4415 182.062 56.4415Z" fill="#006DFE"/>
<path d="M150.29 23.5711H149.442V24.7504H150.29V23.5711Z" fill="#006DFE"/>
<path d="M150.29 28.8535H149.442V30.0327H150.29V28.8535Z" fill="#006DFE"/>
<path d="M150.29 34.1348H149.442V35.3141H150.29V34.1348Z" fill="#006DFE"/>
<path d="M150.29 39.4171H149.442V40.5963H150.29V39.4171Z" fill="#006DFE"/>
<path d="M150.29 44.6985H149.442V45.8778H150.29V44.6985Z" fill="#006DFE"/>
<path d="M150.29 49.9808H149.442V51.1601H150.29V49.9808Z" fill="#006DFE"/>
<path d="M150.29 55.2622H149.442V56.4415H150.29V55.2622Z" fill="#006DFE"/>
<path d="M194.465 58.8456L191.376 57.0209C191.28 56.9647 191.218 56.8336 191.218 56.6894V56.2972C191.218 56.153 191.28 56.022 191.376 55.9657L194.465 54.141C194.636 54.0399 194.826 54.2149 194.826 54.4726V54.6124C194.826 54.7583 194.762 54.8903 194.665 54.9456L192.544 56.16C192.33 56.2823 192.33 56.7035 192.544 56.8266L194.665 58.041C194.762 58.0964 194.826 58.2283 194.826 58.3743V58.5141C194.826 58.7717 194.636 58.9467 194.465 58.8456Z" fill="#006DFE"/>
<path d="M197.267 53.1105L195.839 59.972C195.807 60.1259 195.706 60.2323 195.591 60.2323C195.418 60.2323 195.294 60.0028 195.342 59.7724L196.769 52.9109C196.801 52.757 196.902 52.6506 197.018 52.6506C197.19 52.6506 197.315 52.8801 197.267 53.1105Z" fill="#006DFE"/>
<path d="M201.232 57.0209L198.143 58.8456C197.972 58.9467 197.783 58.7717 197.783 58.5141V58.3743C197.783 58.2283 197.846 58.0964 197.943 58.041L200.065 56.8266C200.279 56.7044 200.279 56.2831 200.065 56.16L197.943 54.9456C197.846 54.8903 197.783 54.7583 197.783 54.6124V54.4726C197.783 54.2149 197.972 54.0399 198.143 54.141L201.232 55.9657C201.328 56.022 201.39 56.153 201.39 56.2972V56.6894C201.39 56.8336 201.328 56.9647 201.232 57.0209Z" fill="#006DFE"/>
<path d="M191.793 17.733C192.504 17.733 193.08 16.9917 193.08 16.0772C193.08 15.1628 192.504 14.4214 191.793 14.4214C191.081 14.4214 190.505 15.1628 190.505 16.0772C190.505 16.9917 191.081 17.733 191.793 17.733Z" fill="white"/>
<path d="M196.994 17.733C197.705 17.733 198.282 16.9917 198.282 16.0772C198.282 15.1628 197.705 14.4214 196.994 14.4214C196.283 14.4214 195.706 15.1628 195.706 16.0772C195.706 16.9917 196.283 17.733 196.994 17.733Z" fill="white"/>
<path d="M202.195 17.733C202.906 17.733 203.483 16.9917 203.483 16.0772C203.483 15.1628 202.906 14.4214 202.195 14.4214C201.484 14.4214 200.907 15.1628 200.907 16.0772C200.907 16.9917 201.484 17.733 202.195 17.733Z" fill="white"/>
<path d="M155.783 122.573H110.105C108.62 122.573 107.417 121.025 107.417 119.116V84.0329C107.417 82.1238 108.62 80.5761 110.105 80.5761H155.783C157.268 80.5761 158.472 82.1238 158.472 84.0329V119.116C158.472 121.025 157.268 122.573 155.783 122.573Z" fill="#B0D8FF"/>
<path d="M158.472 83.8244C158.472 81.9576 157.295 80.4442 155.843 80.4442H110.981C109.529 80.4442 108.352 81.9576 108.352 83.8244V87.6857H158.472V83.8244Z" fill="#3998FF"/>
<path d="M108.352 87.6866V117.977C108.352 119.844 109.529 121.357 110.981 121.357H155.843C157.295 121.357 158.472 119.844 158.472 117.977V87.6866H108.352Z" fill="url(#paint3_linear_398_5169)"/>
<path d="M147.384 84.523C147.514 83.8179 147.174 83.1112 146.626 82.9447C146.077 82.7782 145.528 83.2149 145.398 83.92C145.269 84.6252 145.608 85.3318 146.157 85.4983C146.705 85.6648 147.255 85.2282 147.384 84.523Z" fill="white"/>
<path d="M151.506 84.5235C151.636 83.8183 151.296 83.1117 150.747 82.9452C150.199 82.7787 149.649 83.2154 149.52 83.9205C149.39 84.6257 149.73 85.3323 150.279 85.4988C150.827 85.6653 151.377 85.2287 151.506 84.5235Z" fill="white"/>
<path d="M155.628 84.5229C155.757 83.8177 155.418 83.111 154.869 82.9445C154.321 82.778 153.771 83.2147 153.642 83.9199C153.512 84.6251 153.852 85.3317 154.4 85.4982C154.949 85.6647 155.498 85.2281 155.628 84.5229Z" fill="white"/>
<path d="M116.862 93.3426H112.74V113.245H116.862V93.3426Z" fill="#00D967"/>
<path d="M124.099 95.9271H119.978V113.245H124.099V95.9271Z" fill="#00D967"/>
<path d="M131.336 101.097H127.215V113.245H131.336V101.097Z" fill="#00D967"/>
<path d="M138.574 97.2197H134.452V113.245H138.574V97.2197Z" fill="#00D967"/>
<path d="M145.811 101.097H141.69V113.245H145.811V101.097Z" fill="#00D967"/>
<path d="M153.048 97.2197H148.927V113.245H153.048V97.2197Z" fill="#00D967"/>
<path d="M154.656 114.926H111.233V115.701H154.656V114.926Z" fill="#00D967"/>
<path d="M28.1085 101.416C28.1085 101.416 29.2452 80.5093 37.9625 69.3521C46.6798 58.1948 63.5865 56.9259 70.1221 61.8204C76.6577 66.7149 80.6436 73.5572 82.4307 89.6608C84.2178 105.764 83.6823 127.902 80.3154 137.307C76.9484 146.711 69.8985 156.836 60.2982 159.693C50.6979 162.55 40.2947 164.604 29.5441 161.172C18.7934 157.739 14.3349 154.039 11.8221 140.181C9.3094 126.323 17.838 117.411 21.088 114.663C24.338 111.915 28.1085 101.416 28.1085 101.416Z" fill="#9FD4FF"/>
<path d="M72.7531 64.0451C74.1374 67.6812 75.7474 73.3381 76.4703 81.1697C77.8662 96.2902 80.7729 114.935 76.7664 125.326C72.7607 135.715 69.261 145.85 60.5498 149.72C51.8387 153.59 43.0933 154.908 43.0933 154.908C43.0933 154.908 25.2496 155.072 14.6939 150.11C17.5425 156.218 21.99 158.762 29.5447 161.173C40.2953 164.606 50.6986 162.552 60.2988 159.695C69.8991 156.838 76.949 146.713 80.316 137.308C83.683 127.903 84.2192 105.765 82.4314 89.6616C80.8974 75.8443 77.7451 68.8455 72.7531 64.0451Z" fill="#78CFFF"/>
<path d="M53.8371 74.6968L53.3481 67.5292L51.8886 60.256C46.7188 61.7307 41.6201 64.6704 37.9625 69.3512C29.2452 80.5084 28.1085 101.415 28.1085 101.415C28.1085 101.415 24.338 111.914 21.088 114.663C17.9953 117.279 10.1233 125.475 11.5335 138.205C15.9291 139.35 22.2007 139.87 26.1914 135.37C32.8625 127.848 47.796 94.4585 47.796 94.4585L53.8371 74.6968Z" fill="#B6E2FF"/>
<path d="M65.7771 73.084C69.5995 68.456 68.7994 62.749 68.363 60.7669C65.6848 59.4787 62.0299 58.9018 58.074 59.1709L56.5961 62.6004L56.2897 67.406C56.2897 67.406 53.7933 82.9566 53.7783 84.4919C53.7632 86.0273 51.5138 93.0823 51.0994 94.1165C50.6849 95.1506 43.4948 110.457 43.4948 110.457C43.4948 110.457 32.7585 126.555 32.8467 127.149C32.935 127.744 32.7674 160.789 32.7674 160.789L34.4088 162.372C36.6822 162.773 38.9364 162.956 41.1667 162.966C40.9177 161.164 40.5217 158.854 39.9055 155.899C37.5371 144.55 40.3391 130.973 40.3391 130.973C40.3391 130.973 41.6119 148.673 44.8852 152.736C48.1592 156.8 51.6171 155.142 50.4565 150.823C49.2958 146.506 51.5877 141.553 51.5877 141.553C51.5877 141.553 72.509 130.207 73.8734 122.653C75.2378 115.1 67.9588 114.193 67.9588 114.193C67.9588 114.193 73.3611 111.007 75.0395 106.687C76.7179 102.367 72.9398 87.0077 70.6206 82.5732C68.3028 78.1386 64.7915 74.7935 65.7771 73.084Z" fill="#64C8FF"/>
<path d="M36.5296 160.304C36.5296 160.304 36.8709 162.815 37.3394 164.762C37.8079 166.709 39.2045 167.851 39.1135 169.883C39.0225 171.916 34.7131 173.671 31.7456 175.35C28.778 177.031 25.8522 177.251 25.5396 174.124C25.2271 170.996 30.5029 170.2 31.5842 165.734C32.6648 161.267 31.9323 160.895 31.9323 160.895L36.5296 160.304Z" fill="#FFAB00"/>
<path d="M29.6144 166.465C29.6144 166.465 33.0567 165.346 34.3349 166.616C35.6125 167.885 36.2622 172.149 35.8149 173.636L38.7756 173.068L40.9013 169.842L39.4083 163.263L36.0393 159.143L29.2178 161.067L29.6144 166.465Z" fill="#FE8E00"/>
<path d="M48.3794 131.562C48.3794 131.562 46.6955 132.907 45.2538 133.756C43.8128 134.604 42.2192 134.026 41.101 135.467C39.9828 136.908 41.8362 142.209 42.8389 146.174C43.8415 150.139 45.6628 153.091 47.6852 151.307C49.7076 149.523 46.6538 143.934 48.5244 139.922C50.3949 135.91 51.0987 136.364 51.0987 136.364L48.3794 131.562Z" fill="#FFAB00"/>
<path d="M44.0781 133.773C44.0781 133.773 45.7271 135.136 45.8105 139.193C45.894 143.251 48.1325 151.78 48.1325 151.78C48.1325 151.78 49.0558 149.3 49.1406 149.11C49.2254 148.92 48.4272 142.849 48.4272 142.849C48.4272 142.849 49.9818 139.891 50.0618 139.799C50.1418 139.707 51.2211 136.584 51.2211 136.584L46.7632 130.522L44.0781 133.773Z" fill="#FE8E00"/>
<path d="M62.4252 112.63C62.4252 112.63 69.9929 116.053 71.278 119.309C72.563 122.565 71.8203 127.706 64.0796 132.039C56.3389 136.372 49.3718 140.468 49.3718 140.468C49.3718 140.468 45.7442 137.359 45.8078 131.972L55.8376 124.498C55.8376 124.498 53.3474 122.624 50.3546 123.066C47.3617 123.509 35.8923 125.534 35.8923 125.534C35.8923 125.534 37.2369 140.754 38.2039 161.901C38.2039 161.901 34.6147 165.46 30.6069 163.009C30.6069 163.009 25.1423 128.103 25.4747 122.343C25.8071 116.583 28.7268 114.347 32.8912 113.28C37.0556 112.213 45.5931 108.821 45.5931 108.821L62.4252 112.63Z" fill="#1E2889"/>
<path d="M25.3372 116.843C25.3372 116.843 29.5064 115.663 31.8495 119.568C34.192 123.473 37.9467 133.356 37.9467 133.356L48.5729 130.139C48.5729 130.139 53.2476 127.029 57.6076 124.996C61.9676 122.963 66.8659 119.108 69.8212 122.951C72.7764 126.795 69.0271 132.252 69.0271 132.252L74.7612 123.314L73.4049 110.929L50.8853 104.7L30.9618 106.962L25.3372 116.843Z" fill="#17216B"/>
<path d="M71.0084 93.1887C69.8861 88.8421 67.6716 80.9191 64.5877 79.3855C61.5046 77.8519 57.0174 77.7349 57.0174 77.7349L55.7316 77.9512L51.8257 77.7789C44.9501 77.6989 43.8634 79.9474 42.5256 83.0348C41.3199 85.8171 40.0949 90.1347 40.0949 90.1347L35.4668 108.077C45.5458 118.007 63.2404 113.571 63.2404 113.571C63.2404 113.571 69.7575 109.786 71.7956 107.656C73.8338 105.527 72.1301 97.5354 71.0084 93.1887ZM45.7284 95.5603L45.4179 102.559L42.3239 101.454C42.3239 101.454 44.2423 94.2378 45.9877 89.7346L45.7284 95.5603ZM66.2982 101.813C65.8468 103.397 62.4847 106.14 62.4847 106.14L63.4244 91.8477C63.4244 91.8477 66.7503 100.228 66.2982 101.813Z" fill="#FFAB00"/>
<path d="M63.5831 93.428L63.4244 91.8478C63.4244 91.8478 63.2069 88.1554 63.6583 84.856C63.6583 84.856 61.5272 90.7776 60.5451 98.3022C59.5629 105.828 48.9293 107.498 48.9293 107.498L48.7665 112.877L56.8478 112.036L58.2129 110.483L62.4847 106.14L64.1644 97.502L63.5831 93.428Z" fill="#FE8E00"/>
<path d="M70.8402 90.5295C70.8313 90.7248 72.1411 99.0066 71.8463 102.22C71.5515 105.433 70.8573 106.46 67.3543 108.948C63.8512 111.435 58.9419 113.82 58.9419 113.82L59.1396 115.377L63.2965 115.343L66.71 113.165L72.3032 110.487C72.3032 110.487 73.857 107.612 73.9261 106.048C73.9959 104.485 74.6819 104.487 73.9131 101.195C73.143 97.9038 70.8402 90.5295 70.8402 90.5295Z" fill="#FE8E00"/>
<path d="M45.1957 92.3964L45.8789 90.0169C45.8789 90.0169 45.4371 88.4684 46.1758 83.3268L42.5954 95.3291L41.4998 102.271L43.5638 98.967L45.1957 92.3964Z" fill="#FE8E00"/>
<path d="M49.4128 111.209C49.4128 111.209 50.6049 109.262 51.9474 108.65C53.29 108.038 58.2136 110.483 58.2136 110.483L59.3619 114.243C59.3619 114.243 57.622 115.659 55.5538 115.017C53.4856 114.375 50.2239 114.43 50.2239 114.43L49.4128 111.209Z" fill="#FFACA6"/>
<path d="M58.6049 114.334L31.0861 112.314L30.9716 114.894L58.4904 116.914L58.6049 114.334Z" fill="#78C2FF"/>
<path d="M51.1787 116.373L27.2111 114.613L24.7038 92.764L48.6714 94.5227L51.1787 116.373Z" fill="#0542BF"/>
<path d="M49.3847 116.241L25.4165 114.481L22.9093 92.6321L46.8768 94.3917L49.3847 116.241Z" fill="#006DFE"/>
<path d="M35.8166 105.629C36.9858 105.404 37.7524 103.662 37.5287 101.737C37.305 99.8123 36.1757 98.4343 35.0065 98.6589C33.8372 98.8836 33.0707 100.626 33.2944 102.551C33.5181 104.475 34.6473 105.853 35.8166 105.629Z" fill="white"/>
<path d="M52.394 75.0143C52.3345 75.8022 52.1697 76.729 51.825 77.7789C51.825 77.7789 52.4563 79.7205 54.1695 79.4866C55.8827 79.2527 57.0174 77.735 57.0174 77.735C57.0174 77.735 56.6734 76.8855 56.4976 75.3871C55.0012 74.389 53.4343 74.6379 52.394 75.0143Z" fill="#FFACA6"/>
<path d="M56.4976 75.3871C56.3663 74.2642 56.33 72.7772 56.6043 71.0062L55.551 70.1119L52.0384 71.9453C52.0384 71.9453 52.5424 73.048 52.394 75.0134C53.4343 74.6379 55.0011 74.389 56.4976 75.3871Z" fill="#EA756C"/>
<path d="M49.6269 61.0183C49.6269 61.0183 47.742 61.3657 46.9596 57.5545C46.3536 54.6017 47.705 53.5086 48.6612 52.7621C49.6173 52.0155 49.6898 51.3815 50.9181 50.5092C52.5452 49.3546 53.1977 50.6763 54.0956 49.9253C54.9936 49.1743 56.698 49.1304 57.5714 50.6376C58.4447 52.1448 59.0233 51.4466 60.3337 52.2617C61.6448 53.0769 61.0915 55.2251 61.6989 55.8583C62.3062 56.4914 63.2842 56.7913 63.1508 58.6441C63.0175 60.4969 62.0333 60.9146 62.6358 62.2336C63.2384 63.5517 62.9265 66.5679 61.3596 66.9434C59.7928 67.3189 58.9946 68.6977 58.8086 70.0238C58.6226 71.3498 56.9203 71.9109 55.9778 71.3841C55.0354 70.8574 49.6269 61.0183 49.6269 61.0183Z" fill="#191E56"/>
<path d="M46.3119 54.9034C46.3119 54.9034 46.7523 55.9138 52.3195 55.7827C57.8867 55.6517 57.8983 61.8282 59.7305 63.0655C61.5628 64.3027 63.4053 65.8346 63.4053 65.8346L59.8646 71.6303L56.7794 74.6817L46.5239 68.1244L46.3119 54.9034Z" fill="#10163D"/>
<path d="M49.4634 58.98C49.4634 58.98 48.1052 66.1019 49.1406 70.2622C50.1761 74.4224 53.1867 73.0102 55.6256 70.7379L56.1386 68.3408C56.1386 68.3408 57.4127 68.6873 58.1869 66.7105C58.9611 64.7337 57.2999 64.3661 57.2999 64.3661C57.2999 64.3661 56.659 63.7796 56.5968 62.5986C56.5968 62.5986 55.5593 63.2089 54.3959 61.0887C54.3959 61.0887 53.7872 59.7697 52.8639 60.241C51.9406 60.7124 50.9277 60.3439 50.4661 59.2975C50.0037 58.2519 49.4634 58.98 49.4634 58.98Z" fill="#FFACA6"/>
<path d="M48.0757 60.6262C48.0757 60.6262 48.3883 61.7175 50.1508 61.9619C51.9132 62.2064 52.3243 62.6047 53.6655 63.6345C55.0066 64.6642 55.7343 65.8698 57.321 65.7652C58.9077 65.6614 58.7915 64.8436 58.7915 64.8436L57.503 62.5186L53.6183 59.8559L50.4831 58.7751L49.2965 58.4603L48.0757 60.6262Z" fill="#EA756C"/>
<defs>
<linearGradient id="paint0_linear_398_5169" x1="53.9451" y1="57.115" x2="175.416" y2="57.115" gradientUnits="userSpaceOnUse">
<stop stop-color="#B0D8FF"/>
<stop offset="0.0154" stop-color="#B3D9FF"/>
<stop offset="0.145" stop-color="#C4E1FF"/>
<stop offset="0.3014" stop-color="#D1E7FF"/>
<stop offset="0.5117" stop-color="#D8EAFF"/>
<stop offset="1" stop-color="#DAEBFF"/>
</linearGradient>
<linearGradient id="paint1_linear_398_5169" x1="40.2903" y1="13.7856" x2="40.6677" y2="48.4295" gradientUnits="userSpaceOnUse">
<stop stop-color="#B0D8FF"/>
<stop offset="0.0154" stop-color="#B3D9FF"/>
<stop offset="0.145" stop-color="#C4E1FF"/>
<stop offset="0.3014" stop-color="#D1E7FF"/>
<stop offset="0.5117" stop-color="#D8EAFF"/>
<stop offset="1" stop-color="#DAEBFF"/>
</linearGradient>
<linearGradient id="paint2_linear_398_5169" x1="175.743" y1="17.4368" x2="174.611" y2="63.8156" gradientUnits="userSpaceOnUse">
<stop stop-color="#B0D8FF"/>
<stop offset="0.0154" stop-color="#B3D9FF"/>
<stop offset="0.145" stop-color="#C4E1FF"/>
<stop offset="0.3014" stop-color="#D1E7FF"/>
<stop offset="0.5117" stop-color="#D8EAFF"/>
<stop offset="1" stop-color="#DAEBFF"/>
</linearGradient>
<linearGradient id="paint3_linear_398_5169" x1="133.516" y1="87.0674" x2="133.138" y2="121.711" gradientUnits="userSpaceOnUse">
<stop stop-color="#B0D8FF"/>
<stop offset="0.0154" stop-color="#B3D9FF"/>
<stop offset="0.145" stop-color="#C4E1FF"/>
<stop offset="0.3014" stop-color="#D1E7FF"/>
<stop offset="0.5117" stop-color="#D8EAFF"/>
<stop offset="1" stop-color="#DAEBFF"/>
</linearGradient>
</defs>
</svg>
